REM DIRINDEX 1\2\5,1\2\6,1\2\7,1\2\8,1\3\9,1\3\10,1\3\11,1\4\12,1\4\13,1\4\14,1\4\15,1\4\16
REM DIRNAME folder01,folder02,folder03,folder04,folder05,folder06,folder07,folder08,folder09,folder10,folder11,folder12,folder13,folder14,folder15,folder16
TITLE ""
FILE "1200_sec03_1142_1150.mp3" MP3
  TRACK 01 AUDIO
    TITLE "0:"
    INDEX 01 00:00:00
  TRACK 02 AUDIO
    TITLE "12:cjc034_08261"
    INDEX 01 00:00:17
  TRACK 03 AUDIO
    TITLE "0:"
    INDEX 01 00:01:56
  TRACK 04 AUDIO
    TITLE "13:cjc034_08262"
    INDEX 01 00:02:14
  TRACK 05 AUDIO
    TITLE "0:"
    INDEX 01 00:07:35
  TRACK 06 AUDIO
    TITLE "14:cjc034_08263"
    INDEX 01 00:07:66
  TRACK 07 AUDIO
    TITLE "0:"
    INDEX 01 00:09:32
  TRACK 08 AUDIO
    TITLE "15:cjc034_08264"
    INDEX 01 00:09:63
  TRACK 09 AUDIO
    TITLE "0:"
    INDEX 01 00:13:69
  TRACK 10 AUDIO
    TITLE "12:cjc034_08265"
    INDEX 01 00:15:27
  TRACK 11 AUDIO
    TITLE "0:"
    INDEX 01 00:16:57
  TRACK 12 AUDIO
    TITLE "13:cjc034_08266"
    INDEX 01 00:17:16
  TRACK 13 AUDIO
    TITLE "0:"
    INDEX 01 00:20:63
  TRACK 14 AUDIO
    TITLE "14:cjc034_08267"
    INDEX 01 00:21:23
  TRACK 15 AUDIO
    TITLE "0:"
    INDEX 01 00:22:54
  TRACK 16 AUDIO
    TITLE "15:cjc034_08268"
    INDEX 01 00:23:10
  TRACK 17 AUDIO
    TITLE "0:"
    INDEX 01 00:27:14
  TRACK 18 AUDIO
    TITLE "12:cjc034_08269"
    INDEX 01 00:28:49
  TRACK 19 AUDIO
    TITLE "0:"
    INDEX 01 00:29:74
  TRACK 20 AUDIO
    TITLE "13:cjc034_08270"
    INDEX 01 00:30:30
  TRACK 21 AUDIO
    TITLE "0:"
    INDEX 01 00:33:60
  TRACK 22 AUDIO
    TITLE "14:cjc034_08271"
    INDEX 01 00:34:16
  TRACK 23 AUDIO
    TITLE "0:"
    INDEX 01 00:35:41
  TRACK 24 AUDIO
    TITLE "15:cjc034_08272"
    INDEX 01 00:35:74
  TRACK 25 AUDIO
    TITLE "0:"
    INDEX 01 00:40:50
  TRACK 26 AUDIO
    TITLE "12:cjc034_08273"
    INDEX 01 00:42:06
  TRACK 27 AUDIO
    TITLE "0:"
    INDEX 01 00:44:69
  TRACK 28 AUDIO
    TITLE "13:cjc034_08274"
    INDEX 01 00:45:26
  TRACK 29 AUDIO
    TITLE "0:"
    INDEX 01 00:49:23
  TRACK 30 AUDIO
    TITLE "14:cjc034_08275"
    INDEX 01 00:49:57
  TRACK 31 AUDIO
    TITLE "0:"
    INDEX 01 00:52:45
  TRACK 32 AUDIO
    TITLE "15:cjc034_08276"
    INDEX 01 00:53:00
  TRACK 33 AUDIO
    TITLE "0:"
    INDEX 01 00:56:63
  TRACK 34 AUDIO
    TITLE "12:cjc034_08277"
    INDEX 01 00:58:18
  TRACK 35 AUDIO
    TITLE "0:"
    INDEX 01 00:59:32
  TRACK 36 AUDIO
    TITLE "13:cjc034_08278"
    INDEX 01 00:59:67
  TRACK 37 AUDIO
    TITLE "0:"
    INDEX 01 01:05:62
  TRACK 38 AUDIO
    TITLE "14:cjc034_08279"
    INDEX 01 01:06:22
  TRACK 39 AUDIO
    TITLE "0:"
    INDEX 01 01:07:35
  TRACK 40 AUDIO
    TITLE "15:cjc034_08280"
    INDEX 01 01:07:68
  TRACK 41 AUDIO
    TITLE "0:"
    INDEX 01 01:13:47
  TRACK 42 AUDIO
    TITLE "12:cjc034_08281"
    INDEX 01 01:15:03
  TRACK 43 AUDIO
    TITLE "0:"
    INDEX 01 01:18:23
  TRACK 44 AUDIO
    TITLE "13:cjc034_08282"
    INDEX 01 01:18:56
  TRACK 45 AUDIO
    TITLE "0:"
    INDEX 01 01:24:36
  TRACK 46 AUDIO
    TITLE "14:cjc034_08283"
    INDEX 01 01:24:69
  TRACK 47 AUDIO
    TITLE "0:"
    INDEX 01 01:28:14
  TRACK 48 AUDIO
    TITLE "15:cjc034_08284"
    INDEX 01 01:28:47
  TRACK 49 AUDIO
    TITLE "0:"
    INDEX 01 01:32:17
  TRACK 50 AUDIO
    TITLE "12:cjc034_08285"
    INDEX 01 01:33:52
  TRACK 51 AUDIO
    TITLE "0:"
    INDEX 01 01:35:35
  TRACK 52 AUDIO
    TITLE "13:cjc034_08286"
    INDEX 01 01:35:73
  TRACK 53 AUDIO
    TITLE "0:"
    INDEX 01 01:41:18
  TRACK 54 AUDIO
    TITLE "14:cjc034_08287"
    INDEX 01 01:41:50
  TRACK 55 AUDIO
    TITLE "0:"
    INDEX 01 01:43:35
  TRACK 56 AUDIO
    TITLE "15:cjc034_08288"
    INDEX 01 01:43:70
  TRACK 57 AUDIO
    TITLE "0:"
    INDEX 01 01:47:68
  TRACK 58 AUDIO
    TITLE "12:cjc034_08289"
    INDEX 01 01:49:26
  TRACK 59 AUDIO
    TITLE "0:"
    INDEX 01 01:50:47
  TRACK 60 AUDIO
    TITLE "13:cjc034_08290"
    INDEX 01 01:51:07
  TRACK 61 AUDIO
    TITLE "0:"
    INDEX 01 01:56:08
  TRACK 62 AUDIO
    TITLE "14:cjc034_08291"
    INDEX 01 01:56:41
  TRACK 63 AUDIO
    TITLE "0:"
    INDEX 01 01:57:62
  TRACK 64 AUDIO
    TITLE "15:cjc034_08292"
    INDEX 01 01:58:23
  TRACK 65 AUDIO
    TITLE "0:"
    INDEX 01 02:02:15
  TRACK 66 AUDIO
    TITLE "12:cjc034_08293"
    INDEX 01 02:03:49
  TRACK 67 AUDIO
    TITLE "0:"
    INDEX 01 02:05:36
  TRACK 68 AUDIO
    TITLE "13:cjc034_08294"
    INDEX 01 02:05:70
  TRACK 69 AUDIO
    TITLE "0:"
    INDEX 01 02:09:30
  TRACK 70 AUDIO
    TITLE "14:cjc034_08295"
    INDEX 01 02:09:62
  TRACK 71 AUDIO
    TITLE "0:"
    INDEX 01 02:11:47
  TRACK 72 AUDIO
    TITLE "15:cjc034_08296"
    INDEX 01 02:12:05
  TRACK 73 AUDIO
    TITLE "0:"
    INDEX 01 02:16:26
